<svg xmlns="http://www.w3.org/2000/svg" width="61" height="61" viewBox="0 0 61 61" fill="none">
<path d="M1.5 52.2505C1.5 48.4048 3.02767 44.7167 5.74695 41.9974C8.46623 39.2782 12.1544 37.7505 16 37.7505H45C48.8456 37.7505 52.5338 39.2782 55.253 41.9974C57.9723 44.7167 59.5 48.4048 59.5 52.2505C59.5 54.1733 58.7362 56.0174 57.3765 57.377C56.0169 58.7367 54.1728 59.5005 52.25 59.5005H8.75C6.82718 59.5005 4.98311 58.7367 3.62348 57.377C2.26384 56.0174 1.5 54.1733 1.5 52.2505Z" stroke="black" stroke-width="3" stroke-linejoin="round"/>
<path d="M30.4999 23.25C36.506 23.25 41.3749 18.3811 41.3749 12.375C41.3749 6.3689 36.506 1.5 30.4999 1.5C24.4938 1.5 19.6249 6.3689 19.6249 12.375C19.6249 18.3811 24.4938 23.25 30.4999 23.25Z" stroke="black" stroke-width="3"/>
</svg>