<svg xmlns="http://www.w3.org/2000/svg" width="70" height="70" viewBox="0 0 70 70" fill="none">
<path d="M34.9997 37.9168C36.6105 37.9168 37.9163 36.611 37.9163 35.0002C37.9163 33.3893 36.6105 32.0835 34.9997 32.0835C33.3888 32.0835 32.083 33.3893 32.083 35.0002C32.083 36.611 33.3888 37.9168 34.9997 37.9168Z" fill="#777777" stroke="#777777" stroke-width="7" stroke-linecap="round" stroke-linejoin="round"/>
<path d="M55.4167 37.9168C57.0275 37.9168 58.3333 36.611 58.3333 35.0002C58.3333 33.3893 57.0275 32.0835 55.4167 32.0835C53.8058 32.0835 52.5 33.3893 52.5 35.0002C52.5 36.611 53.8058 37.9168 55.4167 37.9168Z" fill="#777777" stroke="#777777" stroke-width="7" stroke-linecap="round" stroke-linejoin="round"/>
<path d="M14.5832 37.9168C16.194 37.9168 17.4998 36.611 17.4998 35.0002C17.4998 33.3893 16.194 32.0835 14.5832 32.0835C12.9723 32.0835 11.6665 33.3893 11.6665 35.0002C11.6665 36.611 12.9723 37.9168 14.5832 37.9168Z" fill="#777777" stroke="#777777" stroke-width="7" stroke-linecap="round" stroke-linejoin="round"/>
</svg>