<svg xmlns="http://www.w3.org/2000/svg" width="82" height="82" viewBox="0 0 82 82" fill="none">
<path fill-rule="evenodd" clip-rule="evenodd" d="M47.8335 75.1668H34.1668C21.2826 75.1668 14.8387 75.1668 10.8378 71.1625C6.83691 67.1582 6.8335 60.7177 6.8335 47.8335V34.1668C6.8335 21.2826 6.8335 14.8387 10.8378 10.8378C14.8422 6.83691 21.3167 6.8335 34.2693 6.8335C36.3398 6.8335 37.9969 6.8335 39.3943 6.89158C39.3488 7.16491 39.326 7.4428 39.326 7.72525L39.2918 17.4081C39.2918 21.1562 39.2918 24.4703 39.6506 27.1387C40.0401 30.0327 40.9318 32.9266 43.2962 35.2909C45.6537 37.6484 48.551 38.5436 51.4449 38.9331C54.1133 39.2918 57.4275 39.2918 61.1756 39.2918H75.0199C75.1668 41.1163 75.1668 43.3577 75.1668 46.3404V47.8335C75.1668 60.7177 75.1668 67.1616 71.1625 71.1625C67.1582 75.1634 60.7177 75.1668 47.8335 75.1668Z" fill="white"/>
<path d="M66.1192 26.0248L52.5892 13.8512C48.7386 10.3833 46.815 8.6476 44.4473 7.74219L44.4165 17.0834C44.4165 25.1364 44.4165 29.1647 46.9175 31.6657C49.4185 34.1667 53.4468 34.1667 61.4998 34.1667H73.7315C72.4947 31.7614 70.2738 29.766 66.1192 26.0248Z" fill="white"/>
</svg>