<svg xmlns="http://www.w3.org/2000/svg" width="439" height="22" viewBox="0 0 439 22" fill="none">
<path d="M-2.99513e-06 6.33984H6.32V15.5398H20.28V6.33984H26.6V15.5398H28.2V21.9398H21.88V20.3398H-2.99513e-06V6.33984ZM56.1894 20.3398H49.8694V12.3398L35.9094 20.3398H29.5894V6.33984H35.9094V14.3398L49.8694 6.33984H56.1894V20.3398ZM72.0372 20.3398V17.5398H63.1972C62.3172 17.5398 61.5305 17.3798 60.8372 17.0598C60.1439 16.7398 59.5572 16.3198 59.0772 15.7998C58.5972 15.2665 58.2305 14.6665 57.9772 13.9998C57.7239 13.3198 57.5972 12.6332 57.5972 11.9398C57.5972 11.2332 57.7239 10.5465 57.9772 9.87984C58.2305 9.21318 58.5972 8.61984 59.0772 8.09984C59.5572 7.56651 60.1439 7.13984 60.8372 6.81984C61.5305 6.49984 62.3172 6.33984 63.1972 6.33984H87.1972C88.0772 6.33984 88.8639 6.49984 89.5572 6.81984C90.2505 7.13984 90.8372 7.56651 91.3172 8.09984C91.7972 8.61984 92.1639 9.21318 92.4172 9.87984C92.6705 10.5465 92.7972 11.2332 92.7972 11.9398C92.7972 12.6332 92.6705 13.3198 92.4172 13.9998C92.1639 14.6665 91.7972 15.2665 91.3172 15.7998C90.8372 16.3198 90.2505 16.7398 89.5572 17.0598C88.8639 17.3798 88.0772 17.5398 87.1972 17.5398H78.3572V20.3398H72.0372ZM78.3572 12.7398H85.5972C86.1839 12.7398 86.4772 12.4732 86.4772 11.9398C86.4772 11.4065 86.1839 11.1398 85.5972 11.1398H78.3572V12.7398ZM64.7972 11.1398C64.2105 11.1398 63.9172 11.4065 63.9172 11.9398C63.9172 12.4732 64.2105 12.7398 64.7972 12.7398H72.0372V11.1398H64.7972ZM93.7886 6.33984H114.789C115.669 6.33984 116.455 6.49984 117.149 6.81984C117.842 7.13984 118.429 7.56651 118.909 8.09984C119.389 8.61984 119.755 9.21318 120.009 9.87984C120.262 10.5465 120.389 11.2332 120.389 11.9398C120.389 12.6332 120.262 13.3198 120.009 13.9998C119.755 14.6665 119.389 15.2665 118.909 15.7998C118.429 16.3198 117.842 16.7398 117.149 17.0598C116.455 17.3798 115.669 17.5398 114.789 17.5398H100.109V20.3398H93.7886V6.33984ZM100.109 11.1398V12.7398H113.189C113.775 12.7398 114.069 12.4732 114.069 11.9398C114.069 11.4065 113.775 11.1398 113.189 11.1398H100.109ZM142.986 6.13984C143.946 6.13984 144.853 6.33318 145.706 6.71984C146.56 7.10651 147.3 7.63318 147.926 8.29984C148.566 8.95318 149.066 9.71984 149.426 10.5998C149.8 11.4665 149.986 12.3798 149.986 13.3398C149.986 14.2998 149.8 15.2198 149.426 16.0998C149.066 16.9665 148.566 17.7332 147.926 18.3998C147.3 19.0532 146.56 19.5732 145.706 19.9598C144.853 20.3465 143.946 20.5398 142.986 20.5398H128.386C127.426 20.5398 126.52 20.3465 125.666 19.9598C124.813 19.5732 124.066 19.0532 123.426 18.3998C122.8 17.7332 122.3 16.9665 121.926 16.0998C121.566 15.2198 121.386 14.2998 121.386 13.3398C121.386 12.3798 121.566 11.4665 121.926 10.5998C122.3 9.71984 122.8 8.95318 123.426 8.29984C124.066 7.63318 124.813 7.10651 125.666 6.71984C126.52 6.33318 127.426 6.13984 128.386 6.13984H142.986ZM141.686 11.3398H129.686C129.126 11.3398 128.653 11.5332 128.266 11.9198C127.88 12.3065 127.686 12.7798 127.686 13.3398C127.686 13.8998 127.88 14.3732 128.266 14.7598C128.653 15.1465 129.126 15.3398 129.686 15.3398H141.686C142.246 15.3398 142.72 15.1465 143.106 14.7598C143.493 14.3732 143.686 13.8998 143.686 13.3398C143.686 12.7798 143.493 12.3065 143.106 11.9198C142.72 11.5332 142.246 11.3398 141.686 11.3398ZM151.191 6.33984H172.791C173.524 6.33984 174.198 6.42651 174.811 6.59984C175.424 6.77318 175.951 7.03318 176.391 7.37984C176.831 7.71318 177.171 8.12651 177.411 8.61984C177.664 9.11318 177.791 9.68651 177.791 10.3398C177.791 11.0198 177.638 11.6132 177.331 12.1198C177.038 12.6265 176.611 13.0332 176.051 13.3398C176.611 13.6465 177.038 14.0532 177.331 14.5598C177.638 15.0665 177.791 15.6598 177.791 16.3398C177.791 16.9932 177.664 17.5665 177.411 18.0598C177.171 18.5532 176.831 18.9732 176.391 19.3198C175.951 19.6532 175.424 19.9065 174.811 20.0798C174.198 20.2532 173.524 20.3398 172.791 20.3398H151.191V6.33984ZM157.511 11.5398H170.591C171.178 11.5398 171.471 11.2732 171.471 10.7398C171.471 10.2065 171.178 9.93984 170.591 9.93984H157.511V11.5398ZM170.591 16.7398C171.178 16.7398 171.471 16.4732 171.471 15.9398C171.471 15.4065 171.178 15.1398 170.591 15.1398H157.511V16.7398H170.591ZM200.193 6.13984C201.153 6.13984 202.06 6.33318 202.913 6.71984C203.767 7.10651 204.507 7.63318 205.133 8.29984C205.773 8.95318 206.273 9.71984 206.633 10.5998C207.007 11.4665 207.193 12.3798 207.193 13.3398C207.193 14.2998 207.007 15.2198 206.633 16.0998C206.273 16.9665 205.773 17.7332 205.133 18.3998C204.507 19.0532 203.767 19.5732 202.913 19.9598C202.06 20.3465 201.153 20.5398 200.193 20.5398H185.593C184.633 20.5398 183.727 20.3465 182.873 19.9598C182.02 19.5732 181.273 19.0532 180.633 18.3998C180.007 17.7332 179.507 16.9665 179.133 16.0998C178.773 15.2198 178.593 14.2998 178.593 13.3398C178.593 12.3798 178.773 11.4665 179.133 10.5998C179.507 9.71984 180.007 8.95318 180.633 8.29984C181.273 7.63318 182.02 7.10651 182.873 6.71984C183.727 6.33318 184.633 6.13984 185.593 6.13984H200.193ZM198.893 11.3398H186.893C186.333 11.3398 185.86 11.5332 185.473 11.9198C185.087 12.3065 184.893 12.7798 184.893 13.3398C184.893 13.8998 185.087 14.3732 185.473 14.7598C185.86 15.1465 186.333 15.3398 186.893 15.3398H198.893C199.453 15.3398 199.927 15.1465 200.313 14.7598C200.7 14.3732 200.893 13.8998 200.893 13.3398C200.893 12.7798 200.7 12.3065 200.313 11.9198C199.927 11.5332 199.453 11.3398 198.893 11.3398ZM234.998 20.3398H228.678V12.3398L214.718 20.3398H208.398V6.33984H214.718V14.3398L228.678 6.33984H234.998V20.3398ZM221.698 1.79984C223.018 1.79984 224.171 1.63318 225.158 1.29984C226.145 0.96651 227.051 0.533176 227.878 -0.000157833L230.078 3.23984C229.705 3.49318 229.258 3.76651 228.738 4.05984C228.231 4.33984 227.638 4.60651 226.958 4.85984C226.278 5.11318 225.498 5.32651 224.618 5.49984C223.751 5.65984 222.778 5.73984 221.698 5.73984C220.618 5.73984 219.638 5.65984 218.758 5.49984C217.891 5.32651 217.118 5.11318 216.438 4.85984C215.758 4.60651 215.158 4.33984 214.638 4.05984C214.131 3.76651 213.691 3.49318 213.318 3.23984L215.518 -0.000157833C216.345 0.533176 217.251 0.96651 218.238 1.29984C219.225 1.63318 220.378 1.79984 221.698 1.79984ZM236.621 18.1398C236.621 17.8065 236.681 17.4998 236.801 17.2198C236.934 16.9265 237.108 16.6732 237.321 16.4598C237.548 16.2332 237.801 16.0598 238.081 15.9398C238.374 15.8065 238.688 15.7398 239.021 15.7398H241.421C241.754 15.7398 242.061 15.8065 242.341 15.9398C242.634 16.0598 242.888 16.2332 243.101 16.4598C243.328 16.6732 243.501 16.9265 243.621 17.2198C243.754 17.4998 243.821 17.8065 243.821 18.1398C243.821 18.4732 243.754 18.7865 243.621 19.0798C243.501 19.3598 243.328 19.6132 243.101 19.8398C242.888 20.0532 242.634 20.2198 242.341 20.3398C242.061 20.4732 241.754 20.5398 241.421 20.5398H239.021C238.688 20.5398 238.374 20.4732 238.081 20.3398C237.801 20.2198 237.548 20.0532 237.321 19.8398C237.108 19.6132 236.934 19.3598 236.801 19.0798C236.681 18.7865 236.621 18.4732 236.621 18.1398Z" fill="black"/>
<path d="M270.218 20.3398H251.218C250.258 20.3398 249.352 20.1598 248.498 19.7998C247.645 19.4265 246.898 18.9265 246.258 18.2998C245.632 17.6598 245.132 16.9132 244.758 16.0598C244.398 15.2065 244.218 14.2998 244.218 13.3398C244.218 12.3798 244.398 11.4732 244.758 10.6198C245.132 9.76651 245.632 9.02651 246.258 8.39984C246.898 7.75984 247.645 7.25984 248.498 6.89984C249.352 6.52651 250.258 6.33984 251.218 6.33984H270.218V11.5398H252.518C251.958 11.5398 251.485 11.6998 251.098 12.0198C250.712 12.3398 250.518 12.7798 250.518 13.3398C250.518 13.8998 250.712 14.3398 251.098 14.6598C251.485 14.9798 251.958 15.1398 252.518 15.1398H270.218V20.3398ZM271.816 6.33984H278.136V14.0198L289.256 6.33984H298.416L288.276 13.3398L298.416 20.3398H289.256L283.696 16.4998L278.136 20.3398H271.816V6.33984ZM299.628 6.33984H325.628V9.93984H305.948V11.5398H325.628V15.1398H305.948V16.7398H325.628V20.3398H299.628V6.33984ZM327.226 6.33984H353.826V20.3398H347.506V11.1398H333.546V20.3398H327.226V6.33984ZM365.549 11.1398H355.429V6.33984H382.029V11.1398H371.869V20.3398H365.549V11.1398ZM410.232 20.3398H403.912V12.3398L389.952 20.3398H383.632V6.33984H389.952V14.3398L403.912 6.33984H410.232V20.3398ZM411.835 6.33984H418.155V14.0198L429.275 6.33984H438.435L428.295 13.3398L438.435 20.3398H429.275L423.715 16.4998L418.155 20.3398H411.835V6.33984Z" fill="#93E42B"/>
</svg>