<svg xmlns="http://www.w3.org/2000/svg" width="70" height="70" viewBox="0 0 70 70" fill="none">
<path d="M48.5011 40.5155L49.8311 39.1943L46.7424 36.0909L45.4182 37.4122L48.5011 40.5155ZM54.2907 38.6401L59.8644 41.6705L61.9499 37.8263L56.379 34.7988L54.2907 38.6401ZM60.9349 47.6905L56.7932 51.8118L59.8761 54.9122L64.0178 50.7938L60.9349 47.6905ZM54.2674 53.1359C50.0382 53.5326 39.1007 53.1797 27.2532 41.4022L24.1674 44.5026C37.094 57.3563 49.3994 57.9863 54.6757 57.4934L54.2674 53.1359ZM27.2532 41.4022C15.9628 30.173 14.0903 20.7318 13.8569 16.6338L9.48777 16.8818C9.77944 22.0384 12.0982 32.5034 24.1674 44.5026L27.2532 41.4022ZM31.2636 23.3772L32.1007 22.543L29.0207 19.4426L28.1836 20.2738L31.2636 23.3772ZM32.7657 11.9409L29.0907 7.02925L25.5878 9.65425L29.2628 14.563L32.7657 11.9409ZM16.7211 5.95884L12.1419 10.5088L15.2278 13.6122L19.804 9.06217L16.7211 5.95884ZM29.7236 21.8255C28.1778 20.2738 28.1778 20.2738 28.1778 20.2797H28.1719L28.1632 20.2913C28.0246 20.4311 27.9005 20.5845 27.7928 20.7493C27.6353 20.9826 27.4632 21.2888 27.3174 21.6768C26.9623 22.6781 26.8739 23.7546 27.0607 24.8005C27.4515 27.3234 29.1899 30.6572 33.6407 35.0847L36.7265 31.9813C32.5586 27.8397 31.5669 25.3197 31.3832 24.1297C31.2957 23.5638 31.3861 23.2838 31.4124 23.2197C31.4299 23.1808 31.4299 23.1749 31.4124 23.2022C31.3864 23.2424 31.3571 23.2805 31.3249 23.3159L31.2957 23.3451L31.2665 23.3713L29.7236 21.8255ZM33.6407 35.0847C38.0944 39.5122 41.4457 41.2388 43.9715 41.6238C45.2636 41.8222 46.3049 41.6647 47.0953 41.3701C47.538 41.2081 47.9517 40.9757 48.3203 40.6818L48.4661 40.5505L48.4865 40.533L48.4953 40.5243L48.4982 40.5184C48.4982 40.5184 48.5011 40.5155 46.9582 38.9638C45.4124 37.4122 45.4211 37.4093 45.4211 37.4093L45.4269 37.4034L45.4328 37.3976L45.4503 37.383L45.4794 37.3538L45.5903 37.2663C45.6175 37.2488 45.6107 37.2508 45.5699 37.2722C45.4969 37.2984 45.2111 37.3888 44.6365 37.3013C43.429 37.1147 40.8915 36.123 36.7265 31.9813L33.6407 35.0847ZM29.0907 7.02634C26.1157 3.05967 20.2707 2.42967 16.7211 5.95884L19.804 9.06217C21.3557 7.51925 24.109 7.67967 25.5878 9.65425L29.0907 7.02634ZM13.8599 16.6368C13.8015 15.6276 14.2653 14.5718 15.2278 13.6151L12.139 10.5118C10.5728 12.0693 9.33902 14.2743 9.48777 16.8818L13.8599 16.6368ZM56.7932 51.8118C55.994 52.6109 55.1307 53.0601 54.2703 53.1388L54.6757 57.4934C56.8194 57.2922 58.5724 56.213 59.879 54.9151L56.7932 51.8118ZM32.1007 22.543C34.9736 19.6876 35.1865 15.1755 32.7686 11.9438L29.2657 14.5659C30.4411 16.138 30.2661 18.2001 29.0178 19.4455L32.1007 22.543ZM59.8674 41.6734C62.2503 42.9684 62.6207 46.0192 60.9378 47.6934L64.0236 50.7938C67.9319 46.9059 66.7274 40.4222 61.9528 37.8293L59.8674 41.6734ZM49.8311 39.1972C50.9511 38.083 52.7536 37.8088 54.2936 38.643L56.3819 34.8018C53.2203 33.0809 49.3003 33.5563 46.7453 36.0938L49.8311 39.1972Z" fill="#777777"/>
</svg>