<svg xmlns="http://www.w3.org/2000/svg" width="70" height="70" viewBox="0 0 70 70" fill="none">
<path d="M45.2083 40.8333H42.9042L42.0875 40.0458C45.0449 36.616 46.6702 32.2371 46.6667 27.7083C46.6667 23.9587 45.5548 20.2933 43.4716 17.1757C41.3885 14.058 38.4276 11.628 34.9634 10.1931C31.4992 8.75821 27.6873 8.38278 24.0098 9.11429C20.3322 9.8458 16.9541 11.6514 14.3028 14.3028C11.6514 16.9541 9.8458 20.3322 9.11429 24.0098C8.38278 27.6873 8.75821 31.4992 10.1931 34.9634C11.628 38.4276 14.058 41.3885 17.1757 43.4716C20.2933 45.5548 23.9587 46.6667 27.7083 46.6667C32.4042 46.6667 36.7208 44.9458 40.0458 42.0875L40.8333 42.9042V45.2083L55.4167 59.7625L59.7625 55.4167L45.2083 40.8333ZM27.7083 40.8333C20.4458 40.8333 14.5833 34.9708 14.5833 27.7083C14.5833 20.4458 20.4458 14.5833 27.7083 14.5833C34.9708 14.5833 40.8333 20.4458 40.8333 27.7083C40.8333 34.9708 34.9708 40.8333 27.7083 40.8333Z" fill="#777777"/>
</svg>